<svg xmlns="http://www.w3.org/2000/svg" viewBox="0 0 512 512" role="img" aria-label="eye icon">
  <defs>
    <radialGradient id="iris" cx="45%" cy="38%" r="62%">
      <stop offset="0%" stop-color="#d58a24"/>
      <stop offset="55%" stop-color="#9b5412"/>
      <stop offset="100%" stop-color="#5a2c08"/>
    </radialGradient>
    <linearGradient id="skin" x1="0" x2="1" y1="0" y2="1">
      <stop offset="0" stop-color="#ffd1aa"/>
      <stop offset="1" stop-color="#f1a070"/>
    </linearGradient>
  </defs>
  <path d="M50 260C98 160 176 112 256 112s158 48 206 148c-48 100-126 148-206 148S98 360 50 260Z" fill="url(#skin)" opacity=".75"/>
  <path d="M82 260C126 181 192 143 256 143s130 38 174 117c-44 79-110 117-174 117S126 339 82 260Z" fill="#fff"/>
  <path d="M75 254C121 162 188 124 256 124s136 38 181 130" fill="none" stroke="#121212" stroke-width="21" stroke-linecap="round"/>
  <path d="M113 323C154 359 204 377 256 377s102-18 143-54" fill="none" stroke="#f0a06d" stroke-width="18" stroke-linecap="round" opacity=".7"/>
  <circle cx="256" cy="260" r="76" fill="url(#iris)" stroke="#171717" stroke-width="7"/>
  <circle cx="256" cy="260" r="34" fill="#111"/>
  <circle cx="229" cy="225" r="17" fill="#fff" opacity=".95"/>
  <circle cx="277" cy="281" r="7" fill="#fff" opacity=".55"/>
  <path d="M138 146l-12-30M174 130l-5-34M214 119l2-35" stroke="#121212" stroke-width="8" stroke-linecap="round"/>
  <path d="M396 154l25-31M429 184l35-18M440 224l38-3" stroke="#07934a" stroke-width="15" stroke-linecap="round"/>
</svg>
